<?xml version="1.0" standalone="no"?>
<!DOCTYPE svg PUBLIC "-//W3C//DTD SVG 20010904//EN"
 "http://www.w3.org/TR/2001/REC-SVG-20010904/DTD/svg10.dtd">
<svg version="1.0" xmlns="http://www.w3.org/2000/svg"
 width="1024.000000pt" height="1024.000000pt" viewBox="0 0 1024.000000 1024.000000"
 preserveAspectRatio="xMidYMid meet">

<g transform="translate(0.000000,1024.000000) scale(0.100000,-0.100000)"
fill="#000000" stroke="none">
<path d="M4676 7659 c-69 -11 -74 -53 -14 -109 l42 -39 4 -195 c5 -251 1 -281
-43 -307 -19 -11 -37 -29 -40 -39 -7 -24 8 -55 32 -65 30 -11 196 -18 266 -11
73 8 93 19 102 57 6 22 0 33 -30 60 l-36 33 3 85 3 86 37 3 c58 5 80 -24 106
-138 28 -120 49 -155 109 -182 40 -18 60 -20 129 -15 94 7 141 26 150 62 7 26
-9 55 -30 55 -28 0 -53 47 -66 119 -11 66 -17 78 -56 117 -24 24 -52 44 -63
44 -34 0 -32 17 4 40 82 51 112 131 81 214 -20 53 -46 78 -111 108 -48 22 -61
23 -295 23 -135 0 -263 -3 -284 -6z m396 -126 c24 -28 31 -80 18 -129 -15 -52
-41 -74 -87 -74 -27 0 -36 5 -44 28 -12 31 -3 160 13 180 16 18 82 15 100 -5z"/>
<path d="M6315 7633 c-36 -9 -65 -46 -81 -103 -23 -80 -82 -194 -187 -364 -75
-120 -99 -152 -123 -159 -74 -24 -83 -70 -19 -102 32 -15 61 -19 149 -20 101
0 109 1 123 22 14 21 13 25 -16 50 -34 30 -39 57 -16 87 14 18 20 18 141 6
114 -12 127 -16 141 -37 22 -33 5 -68 -36 -76 -25 -5 -31 -12 -31 -31 0 -14 7
-31 15 -39 31 -32 374 -62 406 -35 36 29 32 53 -14 91 -36 30 -49 50 -71 114
-72 203 -191 487 -220 526 -43 57 -106 84 -161 70z m33 -310 c30 -74 55 -154
48 -160 -6 -7 -166 14 -175 22 -10 10 83 185 98 185 5 0 18 -21 29 -47z"/>
<path d="M3922 7614 c-32 -22 -41 -45 -51 -121 -5 -42 -34 -136 -76 -247 -96
-255 -118 -302 -153 -320 -46 -24 -52 -65 -11 -86 22 -12 161 -13 213 0 43 10
61 24 71 58 5 16 2 24 -12 29 -54 19 -70 71 -30 97 14 10 65 17 143 22 119 7
122 6 134 -16 17 -31 6 -62 -30 -83 -36 -21 -37 -30 -9 -58 21 -21 27 -21 157
-15 75 4 159 12 187 17 92 17 110 71 37 108 -31 16 -51 43 -116 157 -207 361
-254 432 -306 459 -38 20 -119 19 -148 -1z m113 -326 c30 -46 55 -88 55 -94 0
-13 -31 -20 -126 -30 -56 -6 -66 -5 -62 7 3 8 16 50 28 94 21 72 35 105 46
105 2 0 28 -37 59 -82z"/>
<path d="M3205 7540 c-71 -9 -178 -22 -236 -28 -122 -11 -149 -24 -179 -86
-34 -72 -25 -148 21 -172 39 -20 64 -6 92 54 15 32 33 52 57 64 35 18 125 25
133 11 6 -12 -91 -234 -188 -429 -47 -95 -85 -176 -85 -181 0 -6 8 -17 19 -27
17 -15 26 -15 142 3 68 11 178 25 244 30 66 6 142 13 169 16 27 2 59 11 72 20
47 31 71 196 34 240 -17 20 -63 19 -82 -2 -8 -10 -25 -39 -37 -66 -14 -29 -34
-53 -52 -63 -38 -19 -154 -31 -163 -16 -4 6 4 33 18 59 31 63 232 512 240 539
9 30 -18 54 -57 53 -18 -1 -90 -9 -162 -19z"/>
<path d="M6982 7528 c-21 -21 -13 -49 25 -84 33 -30 36 -38 34 -81 -2 -67 -68
-388 -86 -424 -9 -16 -24 -29 -33 -29 -17 0 -62 -34 -62 -46 0 -3 7 -18 15
-34 10 -20 25 -31 48 -35 222 -38 479 -75 524 -75 215 0 319 254 148 358 -25
15 -44 32 -45 37 0 6 17 19 37 30 60 33 78 66 78 145 0 53 -5 75 -20 97 -32
43 -117 80 -225 97 -388 62 -417 65 -438 44z m405 -153 c28 -20 37 -63 23
-114 -13 -49 -42 -71 -92 -71 -32 0 -39 4 -44 25 -8 30 11 142 27 161 15 18
59 18 86 -1z m-49 -299 c46 -24 67 -81 51 -138 -14 -52 -50 -88 -88 -88 -70 0
-85 27 -70 127 17 108 43 132 107 99z"/>
<path d="M7860 7371 c-16 -30 -13 -39 26 -78 34 -34 36 -39 30 -82 -8 -62 -63
-292 -88 -368 -21 -66 -25 -72 -72 -88 -58 -20 -60 -65 -5 -92 14 -7 108 -30
209 -52 102 -23 223 -50 270 -61 103 -24 139 -25 168 -4 54 37 98 191 62 214
-28 18 -52 10 -97 -30 -26 -23 -60 -42 -82 -46 -45 -9 -167 11 -200 32 -21 14
-23 21 -18 63 3 25 12 64 19 86 11 35 17 40 48 43 41 4 60 -16 60 -64 0 -63
61 -86 99 -38 25 32 50 110 58 180 8 70 -18 126 -56 122 -18 -2 -32 -15 -49
-45 -20 -37 -28 -43 -56 -43 -18 0 -40 6 -49 13 -15 11 -15 17 -1 77 27 115
47 127 163 94 68 -19 81 -28 114 -81 29 -46 56 -60 86 -43 30 15 43 47 43 100
0 52 -13 85 -40 99 -9 5 -71 18 -137 30 -66 11 -187 34 -270 51 -179 36 -220
38 -235 11z"/>
<path d="M2043 7365 c-48 -21 -62 -58 -61 -161 0 -64 -9 -130 -31 -234 -62
-287 -60 -280 -115 -332 -49 -46 -49 -46 -32 -72 20 -31 42 -33 169 -9 67 12
97 22 114 39 34 34 30 61 -12 78 -26 11 -35 21 -35 39 0 46 28 64 132 86 131
28 152 27 166 -4 16 -35 16 -38 -13 -69 -19 -20 -24 -34 -19 -49 9 -31 6 -30
81 -28 78 2 232 35 286 63 64 32 61 74 -7 93 -32 9 -51 31 -149 166 -139 192
-235 314 -278 356 -53 49 -134 65 -196 38z m103 -295 c55 -51 108 -120 98
-129 -11 -10 -135 -41 -164 -41 -24 0 -24 -3 -4 101 22 115 22 115 70 69z"/>
<path d="M8732 7188 c-18 -18 -14 -56 9 -87 38 -52 30 -97 -68 -346 -56 -142
-83 -185 -114 -185 -25 0 -42 -26 -35 -56 8 -29 37 -44 143 -69 80 -19 117
-15 134 16 9 18 7 27 -11 52 -29 39 -28 66 8 168 48 140 65 116 93 -131 11
-93 28 -130 61 -130 14 0 63 41 140 117 133 131 152 137 123 38 -29 -100 -62
-164 -89 -175 -33 -12 -35 -51 -5 -79 25 -23 164 -69 236 -77 43 -6 54 -3 72
15 26 26 26 41 1 74 -27 34 -25 71 10 191 74 252 100 310 151 337 32 16 39 25
39 50 0 27 -6 33 -54 55 -63 29 -158 48 -194 39 -14 -3 -78 -61 -147 -132 -70
-73 -126 -124 -132 -120 -11 7 -45 142 -74 287 -16 82 -51 120 -136 143 -70
20 -144 22 -161 5z"/>
<path d="M1145 7135 c-93 -25 -200 -52 -237 -61 -118 -30 -144 -80 -58 -116
58 -24 59 -28 113 -258 52 -220 52 -220 17 -271 -32 -48 -37 -68 -18 -87 19
-19 80 -14 211 17 67 17 163 39 212 51 232 53 337 169 295 322 -20 72 -102
137 -172 138 -32 0 -36 11 -11 31 30 25 55 98 48 138 -16 88 -84 141 -180 140
-27 0 -126 -20 -220 -44z m116 -117 c50 -54 54 -124 8 -163 -49 -41 -70 -31
-96 45 -25 73 -29 126 -10 133 32 13 77 6 98 -15z m97 -294 c54 -38 72 -152
30 -191 -71 -64 -114 -23 -157 149 -8 31 -6 40 7 48 26 15 95 12 120 -6z"/>
<path d="M4436 6640 c-864 -34 -1920 -179 -2801 -384 -194 -45 -608 -157 -602
-162 2 -2 73 8 158 21 268 43 765 93 1139 114 975 57 2347 48 3860 -24 587
-28 1292 -77 1745 -120 88 -9 205 -20 260 -25 310 -28 1041 -127 1287 -174 68
-13 124 -23 126 -21 6 6 -373 160 -520 210 -316 109 -747 225 -1105 299 -495
102 -1112 192 -1548 226 -77 6 -167 13 -200 16 -235 19 -445 25 -980 29 -335
2 -704 0 -819 -5z"/>
<path d="M5038 5926 c-48 -13 -61 -21 -112 -65 -74 -66 -98 -199 -52 -296 81
-175 327 -205 446 -55 57 72 72 156 45 246 -39 132 -188 209 -327 170z"/>
<path d="M4050 5435 c-57 -18 -124 -74 -153 -129 -31 -58 -31 -184 0 -241 47
-88 138 -144 232 -145 76 0 125 17 178 64 115 101 126 265 26 376 -72 80 -176
108 -283 75z"/>
<path d="M5995 5435 c-58 -22 -106 -65 -140 -126 -26 -47 -30 -64 -30 -129 0
-57 6 -85 22 -115 62 -117 197 -172 325 -133 55 16 126 83 154 143 59 125 4
284 -120 347 -53 27 -156 33 -211 13z"/>
<path d="M5037 4996 c-138 -38 -223 -192 -183 -331 58 -197 325 -252 459 -94
61 71 80 162 53 252 -40 133 -190 212 -329 173z"/>
<path d="M1030 4827 c3 -3 61 -38 130 -77 697 -401 1739 -772 2629 -935 331
-61 598 -96 976 -131 232 -22 970 -30 1215 -15 1008 65 1879 281 2840 704 280
123 780 380 766 394 -2 3 -13 0 -23 -5 -43 -24 -521 -162 -723 -211 -47 -11
-123 -29 -170 -40 -105 -25 -389 -82 -575 -115 -841 -150 -1748 -217 -2737
-202 -234 4 -459 9 -500 11 -40 3 -192 12 -338 20 -1039 60 -1884 181 -2725
391 -160 40 -698 190 -750 210 -11 4 -18 5 -15 1z"/>
<path d="M863 3481 c-74 -25 -130 -67 -179 -134 -131 -177 -124 -419 17 -572
51 -55 108 -89 188 -111 53 -15 73 -16 128 -7 165 29 284 138 259 237 -10 40
-38 40 -96 1 -45 -30 -60 -35 -112 -35 -67 0 -100 14 -144 62 -64 70 -85 126
-86 230 0 112 32 171 100 184 80 15 141 -29 202 -144 39 -74 58 -84 108 -58
41 21 67 89 58 150 -4 24 -19 68 -34 98 -26 51 -29 53 -67 53 -24 0 -54 9 -75
22 -72 44 -180 54 -267 24z"/>
<path d="M1963 3486 c-134 -44 -245 -183 -273 -345 -33 -183 64 -376 230 -455
56 -26 77 -31 145 -31 72 0 88 4 155 36 94 45 135 83 150 138 13 49 2 94 -24
99 -9 2 -32 -8 -51 -22 -100 -77 -224 -60 -300 40 -88 116 -84 333 8 381 72
37 160 -11 214 -116 43 -83 50 -91 85 -91 38 0 85 48 94 96 9 50 -3 121 -29
174 -21 43 -24 45 -62 42 -29 -1 -56 6 -98 29 -69 37 -175 48 -244 25z"/>
<path d="M2740 3484 c-68 -24 -143 -86 -189 -154 -152 -229 -77 -539 157 -648
47 -22 71 -26 142 -27 76 0 93 4 156 33 40 19 89 51 110 73 32 32 38 46 42 91
7 87 -24 98 -100 36 -33 -26 -128 -36 -181 -19 -20 7 -53 31 -75 55 -127 137
-103 416 35 416 65 0 121 -44 167 -131 22 -41 44 -77 50 -81 40 -28 107 18
126 86 14 52 3 122 -31 188 -19 38 -23 40 -55 35 -26 -4 -51 2 -101 25 -81 38
-183 47 -253 22z"/>
<path d="M5493 3486 c-227 -74 -350 -345 -263 -579 56 -149 210 -257 366 -257
90 0 244 79 278 142 22 40 19 116 -5 131 -12 8 -27 3 -60 -20 -61 -42 -111
-55 -168 -42 -64 14 -105 42 -139 97 -41 65 -54 111 -54 192 0 163 98 234 213
157 23 -15 48 -50 77 -105 40 -77 45 -82 76 -82 36 0 72 28 87 67 17 46 10
135 -15 189 -26 55 -39 65 -77 57 -16 -3 -47 6 -85 26 -71 38 -166 49 -231 27z"/>
<path d="M6284 3490 c-102 -21 -172 -70 -233 -161 -52 -78 -74 -153 -74 -259
-2 -250 151 -420 377 -420 293 0 468 332 330 626 -71 151 -249 246 -400 214z
m100 -212 c49 -57 87 -175 93 -293 5 -83 3 -93 -19 -125 -82 -121 -237 74
-238 300 0 109 29 160 91 160 32 0 43 -6 73 -42z"/>
<path d="M7797 3490 c-147 -25 -273 -156 -308 -321 -7 -30 -9 -90 -6 -137 4
-73 11 -96 46 -168 76 -153 204 -226 369 -211 279 26 431 370 284 640 -53 99
-137 164 -247 193 -55 15 -68 15 -138 4z m89 -205 c59 -63 112 -249 99 -351
-18 -146 -133 -153 -202 -13 -41 82 -55 144 -56 244 -1 81 16 136 45 148 40
16 81 6 114 -28z"/>
<path d="M9285 3486 c-141 -36 -235 -141 -279 -312 -41 -157 3 -323 113 -427
76 -72 129 -92 251 -92 79 0 103 4 142 23 78 39 143 105 184 188 33 66 38 84
42 173 5 116 -16 204 -68 284 -88 132 -246 199 -385 163z m94 -185 c76 -54
136 -286 106 -405 -15 -57 -35 -76 -81 -76 -60 0 -114 69 -147 190 -34 121
-32 219 4 279 15 25 25 31 55 31 20 0 48 -9 63 -19z"/>
<path d="M3774 3481 c-249 -6 -264 -10 -264 -60 0 -18 12 -36 37 -57 l38 -32
3 -238 c4 -264 -2 -301 -48 -336 -33 -24 -38 -49 -14 -72 13 -14 50 -16 237
-17 122 0 247 -4 278 -8 83 -10 98 -3 131 59 31 61 40 158 19 199 -19 34 -60
25 -84 -19 -44 -82 -96 -110 -199 -110 -84 0 -92 11 -96 122 -4 98 0 109 43
122 30 9 45 -6 56 -55 12 -53 25 -69 55 -69 41 0 58 41 62 152 5 127 -14 188
-58 188 -33 0 -41 -10 -55 -65 -10 -39 -11 -40 -55 -40 l-45 0 0 96 c0 124 4
129 102 129 86 0 119 -14 154 -64 13 -20 31 -38 40 -41 60 -20 84 80 39 165
-26 52 -40 60 -94 58 -28 -1 -155 -4 -282 -7z"/>
<path d="M8520 3481 c-118 -36 -189 -129 -191 -252 -2 -101 27 -155 113 -211
29 -19 85 -48 125 -63 86 -33 113 -56 113 -94 0 -80 -136 -94 -213 -22 -16 14
-40 47 -53 73 -20 40 -48 68 -68 68 -2 0 -12 -7 -20 -16 -35 -34 -10 -198 36
-242 67 -62 231 -90 340 -58 116 33 197 113 219 215 24 117 -20 211 -124 260
-34 16 -84 36 -110 46 -65 23 -107 60 -107 93 0 35 10 49 43 61 53 20 105 -1
167 -68 31 -34 61 -61 67 -61 7 0 21 12 33 28 19 23 21 36 17 80 -7 64 -48
140 -80 146 -138 26 -254 33 -307 17z"/>
<path d="M4300 3469 c-51 -21 -53 -58 -4 -103 48 -44 54 -76 53 -301 0 -228
-6 -264 -48 -304 -35 -33 -40 -65 -12 -81 11 -6 92 -10 190 -10 93 0 204 -5
247 -11 102 -14 117 -9 145 47 47 99 33 244 -25 244 -30 0 -41 -14 -55 -67
-19 -72 -89 -102 -165 -73 -38 14 -46 63 -46 301 0 230 0 230 53 262 33 21 36
58 7 87 -18 18 -33 20 -167 19 -82 0 -159 -5 -173 -10z"/>
<path d="M6860 3473 c-63 -12 -67 -56 -10 -109 l40 -37 0 -260 0 -260 -40 -37
c-43 -40 -49 -60 -24 -84 13 -14 47 -16 213 -16 108 0 223 -5 254 -10 41 -8
62 -8 78 0 31 17 61 95 67 170 3 56 1 69 -18 93 -12 15 -27 27 -34 27 -18 0
-42 -30 -50 -62 -3 -15 -17 -39 -29 -54 -30 -34 -113 -46 -152 -20 l-25 16 0
253 0 252 41 35 c34 30 39 40 34 61 -4 15 -18 32 -31 38 -24 11 -260 14 -314
4z"/>
<path d="M1421 2889 c-43 -40 -55 -123 -26 -179 20 -38 43 -50 100 -50 38 0
52 5 75 28 53 53 52 152 -1 196 -40 34 -114 36 -148 5z"/>
</g>
</svg>
